<?xml version="1.0" encoding="UTF-8" standalone="no"?>
<!DOCTYPE svg PUBLIC "-//W3C//DTD SVG 1.1//EN" "http://www.w3.org/Graphics/SVG/1.1/DTD/svg11.dtd">
<svg width="100%" height="100%" viewBox="0 0 8486 7888" version="1.1" xmlns="http://www.w3.org/2000/svg" xmlns:xlink="http://www.w3.org/1999/xlink" xml:space="preserve" xmlns:serif="http://www.serif.com/" style="fill-rule:evenodd;clip-rule:evenodd;stroke-linejoin:round;stroke-miterlimit:2;">
    <g transform="matrix(4.16667,0,0,4.16667,-8257.34,-4391.67)">
        <path d="M2376,1187.31L2376,1054L1982,1054L1982,1585.2C2039,1506.56 2101.37,1432.41 2170.58,1363.2C2234.79,1298.99 2303,1240.3 2376,1187.31Z" style="fill:white;fill-rule:nonzero;"/>
        <path d="M3060.25,1985.46C2944.32,2051.41 2848.67,2150.37 2785.15,2267.81L3462.95,2947L4017.48,2947L4018.24,2944.82L3060.25,1985.46Z" style="fill:white;fill-rule:nonzero;"/>
        <path d="M3410.4,1567.85C3425.06,1567.85 3439.65,1568.18 3454.16,1568.78L3721.76,1208.66C3620.24,1186.07 3516.18,1174.66 3410.4,1174.66C3217.62,1174.66 3030.5,1212.46 2854.25,1287.01C2684.1,1358.98 2531.34,1461.96 2400.2,1593.1C2269.06,1724.24 2166.08,1877.01 2094.11,2047.15C2019.56,2223.41 1981.76,2411.85 1981.76,2604.63C1981.76,2720.74 1995.5,2835 2022.69,2947L2432.66,2947C2395.29,2839 2374.95,2724.06 2374.95,2604.63C2374.95,2033.68 2839.45,1567.85 3410.4,1567.85Z" style="fill:white;fill-rule:nonzero;"/>
    </g>
</svg>
